<?xml version="1.0" standalone="no"?>
<!DOCTYPE svg PUBLIC "-//W3C//DTD SVG 20010904//EN"
 "http://www.w3.org/TR/2001/REC-SVG-20010904/DTD/svg10.dtd">
<svg version="1.0" xmlns="http://www.w3.org/2000/svg"
 width="700.000000pt" height="700.000000pt" viewBox="0 0 700.000000 700.000000"
 preserveAspectRatio="xMidYMid meet">
<metadata>
Created by potrace 1.14, written by Peter Selinger 2001-2017
</metadata>
<g transform="translate(0.000000,700.000000) scale(0.100000,-0.100000)"
fill="#000000" stroke="none">
<path d="M2229 5234 l-616 -616 -306 306 c-168 168 -308 306 -312 306 -9 0
-405 -397 -405 -407 0 -4 231 -239 513 -521 l513 -512 823 827 822 826 -203
204 c-111 112 -205 203 -208 203 -3 0 -282 -277 -621 -616z"/>
<path d="M3792 4666 l3 -291 1295 0 c712 -1 1302 1 1311 3 14 3 16 36 15 290
l-1 287 -1313 1 -1312 2 2 -292z"/>
<path d="M2232 2904 c-338 -337 -617 -614 -620 -614 -4 0 -105 98 -224 218
-119 119 -256 257 -305 305 l-89 88 -202 -202 c-111 -112 -202 -205 -202 -208
0 -3 231 -237 513 -519 l512 -512 60 59 c33 32 404 403 824 824 l764 765 -206
206 c-113 113 -207 206 -209 205 -2 0 -279 -277 -616 -615z"/>
<path d="M3794 2615 c-3 -6 -3 -136 -2 -290 l3 -280 1310 0 1310 0 1 290 1
290 -1310 0 c-877 0 -1311 -3 -1313 -10z"/>
</g>
</svg>
